<svg width="94" height="94" viewBox="0 0 94 94" fill="none" xmlns="http://www.w3.org/2000/svg">
<g clip-path="url(#clip0_10964_208593)">
<rect x="11" y="11" width="72" height="72" rx="36" fill="white"/>
<rect width="72" height="72" transform="translate(11 11)" fill="white"/>
<path fill-rule="evenodd" clip-rule="evenodd" d="M83 11H11V83H83V11ZM47.0023 28.71C42.1422 28.71 38.2023 32.6499 38.2023 37.51C38.2023 42.3701 42.1422 46.31 47.0023 46.31C51.8623 46.31 55.8022 42.3701 55.8022 37.51C55.8022 32.6499 51.8623 28.71 47.0023 28.71ZM34.8348 52.8464C38.0634 51.1073 42.3782 50.2021 47.0021 50.2021C51.626 50.2021 55.9408 51.1073 59.1694 52.8464C62.3956 54.5842 64.802 57.3345 64.802 61.0021L64.802 61.6559C64.8021 62.0292 64.8022 62.4092 64.7756 62.7341C64.7461 63.0955 64.6749 63.544 64.4424 64.0004C64.126 64.6213 63.6212 65.1262 63.0003 65.4426C62.5439 65.6751 62.0954 65.7463 61.734 65.7759C61.4091 65.8024 61.0291 65.8024 60.6558 65.8024L33.3488 65.804C32.9755 65.8041 32.5955 65.8041 32.2706 65.7776C31.9091 65.7481 31.4606 65.677 31.0041 65.4444C30.3831 65.128 29.8783 64.6232 29.5619 64.0022C29.3293 63.5457 29.2581 63.0972 29.2286 62.7358C29.202 62.4109 29.2021 62.0308 29.2022 61.6575L29.2022 61.0021C29.2022 57.3345 31.6086 54.5842 34.8348 52.8464Z" fill="#8C9196" fill-opacity="0.2"/>
</g>
<rect x="11.5" y="11.5" width="71" height="71" rx="35.5" stroke="#747680" stroke-opacity="0.1"/>
<defs>
<clipPath id="clip0_10964_208593">
<rect x="11" y="11" width="72" height="72" rx="36" fill="white"/>
</clipPath>
</defs>
</svg>
