<svg width="32" height="32" viewBox="0 0 32 32" fill="none" xmlns="http://www.w3.org/2000/svg">
<rect width="32" height="32" fill="#1E1E1E"/>
<path d="M27.5032 13.456C27.5032 13.2142 27.4072 12.9823 27.2365 12.8111C27.0656 12.64 26.8338 12.5437 26.592 12.5432C26.8336 12.5432 27.0655 12.4472 27.2364 12.2763C27.4072 12.1055 27.5032 11.8737 27.5032 11.632C27.5037 11.8738 27.6 12.1056 27.7711 12.2764C27.9423 12.4473 28.1743 12.5432 28.416 12.5432C28.1741 12.5437 27.9421 12.64 27.7711 12.811C27.6 12.9821 27.5037 13.2141 27.5032 13.456Z" stroke="white" stroke-width="0.24" stroke-linejoin="round"/>
<path d="M25.6752 9.12002C25.6752 8.87815 25.5779 8.64616 25.4048 8.47514C25.2316 8.3041 24.9968 8.20802 24.752 8.20802C24.9968 8.20802 25.2316 8.11194 25.4048 7.9409C25.5779 7.76988 25.6752 7.53789 25.6752 7.29602C25.6752 7.5368 25.7715 7.76781 25.9433 7.93866C26.115 8.10952 26.3483 8.20634 26.592 8.20802C26.3472 8.20802 26.1123 8.3041 25.9392 8.47514C25.766 8.64616 25.6688 8.87815 25.6688 9.12002H25.6752Z" stroke="white" stroke-width="0.24" stroke-linejoin="round"/>
<path d="M5.22429 22.7209C3.93178 21.896 3.0449 20.4635 3.07266 18.86" stroke="white" stroke-width="0.24" stroke-linejoin="round"/>
<path d="M5.21387 22.728C5.90187 23.1893 7.80587 24.112 9.91787 24.112" stroke="white" stroke-width="0.24"/>
<path d="M3.07275 18.86C3.07275 16.4191 4.93903 14.4161 7.32511 14.1941C7.32202 14.1247 7.31431 14.0568 7.31431 13.9875C7.31431 12.2851 8.69627 10.9051 10.3991 10.9051C11.2258 10.9051 11.9754 11.232 12.5276 11.7609C13.4777 9.23673 15.9085 7.4342 18.7665 7.4342C22.4497 7.4342 25.4358 10.4194 25.4358 14.1V14.1031C27.4424 14.7553 28.8923 16.6381 28.8923 18.86C28.8923 20.1944 28.3702 21.4069 27.519 22.304" stroke="white" stroke-width="0.24" stroke-linejoin="round"/>
<path d="M10.5607 18.9818C10.2523 19.0997 9.90766 19.1586 9.5269 19.1586C8.88341 19.1586 8.39603 18.9875 8.06477 18.6453C7.7335 18.2994 7.56787 17.7936 7.56787 17.1282C7.56787 16.4704 7.74112 15.9609 8.08762 15.5997C8.43411 15.2385 8.92149 15.0579 9.54974 15.0579C9.88482 15.0579 10.2028 15.1112 10.5036 15.2176V15.8906C10.1571 15.8146 9.87339 15.7765 9.65254 15.7765C9.25656 15.7765 8.95955 15.8811 8.76157 16.0902C8.56738 16.2994 8.47027 16.6187 8.47027 17.0483V17.1795C8.47027 17.6054 8.56547 17.9229 8.75586 18.132C8.94624 18.3373 9.23752 18.44 9.6297 18.44C9.85054 18.44 10.1609 18.3963 10.5607 18.3088V18.9818Z" fill="white"/>
<path d="M12.424 19.0275C12.2641 19.0922 12.0927 19.1245 11.91 19.1245C11.3959 19.1245 11.1389 18.8373 11.1389 18.2632V14.864H11.9728V18.1947C11.9728 18.3013 11.9899 18.3773 12.0242 18.4229C12.0623 18.4647 12.1232 18.4856 12.2069 18.4856C12.2603 18.4856 12.3326 18.48 12.424 18.4685V19.0275Z" fill="white"/>
<path d="M14.237 19.1701C13.7839 19.1701 13.4298 19.035 13.1747 18.7651C12.9195 18.4914 12.792 18.111 12.792 17.6245C12.792 17.1416 12.9195 16.7651 13.1747 16.4952C13.4298 16.2214 13.7839 16.0845 14.237 16.0845C14.6901 16.0845 15.0442 16.2214 15.2993 16.4952C15.5544 16.7651 15.682 17.1416 15.682 17.6245C15.682 18.111 15.5544 18.4914 15.2993 18.7651C15.0442 19.035 14.6901 19.1701 14.237 19.1701ZM14.237 18.5312C14.6368 18.5312 14.8367 18.229 14.8367 17.6245C14.8367 17.0237 14.6368 16.7234 14.237 16.7234C13.8372 16.7234 13.6373 17.0237 13.6373 17.6245C13.6373 18.229 13.8372 18.5312 14.237 18.5312Z" fill="white"/>
<path d="M18.2736 19.0845L18.1936 18.7765C17.8548 19.0389 17.5007 19.1701 17.1314 19.1701C16.8724 19.1701 16.6706 19.0939 16.526 18.9419C16.3813 18.7861 16.3088 18.5731 16.3088 18.3032V16.1701H17.1428V18.0693C17.1428 18.3773 17.276 18.5312 17.5426 18.5312C17.7405 18.5312 17.9348 18.4704 18.1252 18.3488V16.1701H18.9591V19.0845H18.2736Z" fill="white"/>
<path d="M21.7268 19.0845L21.6583 18.8279C21.4223 19.0408 21.1425 19.1472 20.8188 19.1472C20.5788 19.1472 20.3676 19.0883 20.1847 18.9704C20.002 18.8488 19.8593 18.6738 19.7564 18.4458C19.6574 18.2176 19.6079 17.9495 19.6079 17.6416C19.6079 17.1701 19.7202 16.7936 19.9449 16.5123C20.1695 16.2271 20.4665 16.0845 20.8359 16.0845C21.1367 16.0845 21.3975 16.1701 21.6183 16.3411V14.864H22.4522V19.0845H21.7268ZM21.0929 18.5199C21.2756 18.5199 21.4508 18.4666 21.6183 18.3602V16.8544C21.4546 16.7594 21.2662 16.7119 21.0529 16.7119C20.8511 16.7119 20.7007 16.788 20.6017 16.94C20.5028 17.0883 20.4532 17.3146 20.4532 17.6187C20.4532 17.9229 20.5045 18.1491 20.6074 18.2975C20.714 18.4458 20.8759 18.5199 21.0929 18.5199Z" fill="white"/>
<path d="M14.1317 24.2701C13.8233 24.388 13.4787 24.4469 13.0979 24.4469C12.4545 24.4469 11.9671 24.2759 11.6358 23.9336C11.3045 23.5875 11.1389 23.0819 11.1389 22.4165C11.1389 21.7587 11.3122 21.2493 11.6587 20.888C12.0052 20.5267 12.4925 20.3463 13.1208 20.3463C13.4559 20.3463 13.7738 20.3994 14.0746 20.5059V21.1789C13.7281 21.1029 13.4444 21.0648 13.2236 21.0648C12.8276 21.0648 12.5306 21.1695 12.3326 21.3786C12.1384 21.5877 12.0413 21.9071 12.0413 22.3367V22.4679C12.0413 22.8936 12.1365 23.2112 12.3269 23.4203C12.5173 23.6256 12.8086 23.7283 13.2007 23.7283C13.4216 23.7283 13.7319 23.6845 14.1317 23.5971V24.2701Z" fill="white"/>
<path d="M15.995 24.3157C15.8351 24.3803 15.6638 24.4127 15.481 24.4127C14.967 24.4127 14.71 24.1256 14.71 23.5515V20.1523H15.5438V23.4831C15.5438 23.5895 15.561 23.6656 15.5952 23.7112C15.6333 23.753 15.6942 23.7739 15.778 23.7739C15.8313 23.7739 15.9036 23.7682 15.995 23.7568V24.3157Z" fill="white"/>
<path d="M18.5092 24.3728L18.4292 24.0648C18.0904 24.327 17.7363 24.4582 17.3668 24.4582C17.108 24.4582 16.9062 24.3822 16.7614 24.2302C16.6168 24.0742 16.5444 23.8613 16.5444 23.5913V21.4584H17.3784V23.3576C17.3784 23.6656 17.5116 23.8195 17.778 23.8195C17.9761 23.8195 18.1704 23.7587 18.3606 23.6369V21.4584H19.1945V24.3728H18.5092Z" fill="white"/>
<path d="M19.9919 24.3728V20.1523H20.8257V21.6808C20.9361 21.5858 21.0657 21.5115 21.2142 21.4584C21.3627 21.4013 21.5092 21.3728 21.6539 21.3728C22.0233 21.3728 22.3145 21.5079 22.5278 21.7778C22.7447 22.0477 22.8534 22.4127 22.8534 22.8728C22.8534 23.1731 22.8038 23.4411 22.7047 23.677C22.6059 23.9127 22.463 24.0991 22.2764 24.2359C22.0899 24.369 21.8748 24.4355 21.6311 24.4355C21.4559 24.4355 21.2923 24.4051 21.1399 24.3442C20.9876 24.2834 20.8601 24.1979 20.7572 24.0875L20.683 24.3728H19.9919ZM21.3855 22.0002C21.1875 22.0002 21.0009 22.0515 20.8257 22.1541V23.6541C20.9932 23.7568 21.1799 23.8082 21.3855 23.8082C21.5987 23.8082 21.7548 23.7359 21.8539 23.5914C21.9566 23.4469 22.0081 23.2187 22.0081 22.9071C22.0081 22.5914 21.9585 22.3615 21.8595 22.2168C21.7606 22.0723 21.6025 22.0002 21.3855 22.0002Z" fill="white"/>
<path d="M24.7452 23.5686C24.7452 23.4925 24.7223 23.4336 24.6765 23.3918C24.6346 23.3499 24.5471 23.3043 24.4138 23.2549L23.9684 23.0781C23.736 22.9869 23.5685 22.8747 23.4656 22.7416C23.3629 22.6085 23.3116 22.4394 23.3116 22.2339C23.3116 21.9754 23.4143 21.7682 23.6199 21.6123C23.8293 21.4526 24.1072 21.3728 24.4538 21.3728C24.7736 21.3728 25.0687 21.4355 25.3391 21.561V22.1142C25.0496 22.0267 24.7794 21.983 24.528 21.983C24.3719 21.983 24.2576 22.0021 24.1853 22.04C24.113 22.0781 24.0768 22.1389 24.0768 22.2226C24.0768 22.2872 24.0978 22.3405 24.1397 22.3822C24.1853 22.4203 24.2786 22.4678 24.4196 22.5248L24.8536 22.7016C25.0896 22.7966 25.2572 22.907 25.3562 23.0325C25.4591 23.1579 25.5104 23.3214 25.5104 23.5229C25.5104 23.8043 25.402 24.0325 25.1848 24.2074C24.9716 24.3784 24.6898 24.464 24.3396 24.464C23.9474 24.464 23.6008 24.3861 23.3 24.2302V23.677C23.677 23.7949 24.0216 23.8538 24.3338 23.8538C24.608 23.8538 24.7452 23.7587 24.7452 23.5686Z" fill="white"/>
<path d="M12.688 6.30398C12.688 6.06211 12.5936 5.83014 12.4256 5.6591C12.2575 5.48806 12.0296 5.39198 11.792 5.39198C11.9097 5.39198 12.0262 5.3684 12.1349 5.32256C12.2436 5.27673 12.3424 5.20955 12.4256 5.12486C12.5088 5.04017 12.5748 4.93964 12.6198 4.82899C12.6648 4.71833 12.688 4.59974 12.688 4.47998C12.688 4.59974 12.7112 4.71833 12.7562 4.82899C12.8012 4.93964 12.8672 5.04017 12.9504 5.12486C13.0336 5.20955 13.1324 5.27673 13.2411 5.32256C13.3498 5.3684 13.4663 5.39198 13.584 5.39198C13.3464 5.39198 13.1185 5.48806 12.9504 5.6591C12.7824 5.83014 12.688 6.06211 12.688 6.30398Z" stroke="white" stroke-width="0.24" stroke-linejoin="round"/>
<path d="M5.0647 13.4544C5.06386 13.2129 4.96817 12.9815 4.79858 12.811C4.629 12.6405 4.39934 12.5448 4.15991 12.5448C4.39988 12.5448 4.63001 12.4486 4.79969 12.2775C4.96937 12.1063 5.0647 11.8741 5.0647 11.632C5.06449 11.7518 5.0877 11.8705 5.133 11.9812C5.1783 12.0919 5.24479 12.1926 5.32868 12.2774C5.41258 12.3621 5.51222 12.4294 5.6219 12.4753C5.73159 12.5212 5.84916 12.5448 5.96791 12.5448C5.72836 12.5448 5.49863 12.6408 5.32924 12.8117C5.15986 12.9826 5.0647 13.2144 5.0647 13.456V13.4544Z" stroke="white" stroke-width="0.24" stroke-linejoin="round"/>
<path d="M9.20636 8.3584C9.20636 8.4176 9.21276 8.4656 9.22396 8.5008C9.23676 8.536 9.25276 8.5744 9.27516 8.616C9.28316 8.6288 9.28636 8.6416 9.28636 8.6528C9.28636 8.6688 9.27676 8.6848 9.25596 8.7008L9.15516 8.768C9.14076 8.7776 9.12636 8.7824 9.11356 8.7824C9.09756 8.7824 9.08156 8.7744 9.06556 8.76C9.04316 8.736 9.02396 8.7104 9.00796 8.6848C8.99196 8.6576 8.97596 8.6272 8.95836 8.5904C8.83356 8.7376 8.67676 8.8112 8.48796 8.8112C8.35356 8.8112 8.24636 8.7728 8.16796 8.696C8.08956 8.6192 8.04956 8.5168 8.04956 8.3888C8.04956 8.2528 8.09756 8.1424 8.19516 8.0592C8.29276 7.976 8.42236 7.9344 8.58716 7.9344C8.64156 7.9344 8.69756 7.9392 8.75676 7.9472C8.81596 7.9552 8.87676 7.968 8.94076 7.9824V7.8656C8.94076 7.744 8.91516 7.6592 8.86556 7.6096C8.81436 7.56 8.72796 7.536 8.60476 7.536C8.54876 7.536 8.49116 7.5424 8.43196 7.5568C8.37276 7.5712 8.31516 7.5888 8.25916 7.6112C8.23356 7.6224 8.21436 7.6288 8.20316 7.632C8.19196 7.6352 8.18396 7.6368 8.17756 7.6368C8.15516 7.6368 8.14396 7.6208 8.14396 7.5872V7.5088C8.14396 7.4832 8.14716 7.464 8.15516 7.4528C8.16316 7.4416 8.17756 7.4304 8.19996 7.4192C8.25596 7.3904 8.32316 7.3664 8.40156 7.3472C8.47996 7.3264 8.56316 7.3168 8.65116 7.3168C8.84156 7.3168 8.98076 7.36 9.07036 7.4464C9.15836 7.5328 9.20316 7.664 9.20316 7.84V8.3584H9.20636ZM8.55676 8.6016C8.60956 8.6016 8.66396 8.592 8.72156 8.5728C8.77916 8.5536 8.83036 8.5184 8.87356 8.4704C8.89916 8.44 8.91836 8.4064 8.92796 8.368C8.93756 8.3296 8.94396 8.2832 8.94396 8.2288V8.1616C8.89756 8.1504 8.84796 8.1408 8.79676 8.1344C8.74556 8.128 8.69596 8.1248 8.64636 8.1248C8.53916 8.1248 8.46076 8.1456 8.40796 8.1888C8.35516 8.232 8.32956 8.2928 8.32956 8.3728C8.32956 8.448 8.34876 8.504 8.38876 8.5424C8.42716 8.5824 8.48316 8.6016 8.55676 8.6016ZM9.84156 8.7744C9.81276 8.7744 9.79356 8.7696 9.78076 8.7584C9.76796 8.7488 9.75676 8.7264 9.74716 8.696L9.37116 7.4592C9.36156 7.4272 9.35676 7.4064 9.35676 7.3952C9.35676 7.3696 9.36956 7.3552 9.39516 7.3552H9.55196C9.58236 7.3552 9.60316 7.36 9.61436 7.3712C9.62716 7.3808 9.63676 7.4032 9.64636 7.4336L9.91516 8.4928L10.1648 7.4336C10.1728 7.4016 10.1824 7.3808 10.1952 7.3712C10.208 7.3616 10.2304 7.3552 10.2592 7.3552H10.3872C10.4176 7.3552 10.4384 7.36 10.4512 7.3712C10.464 7.3808 10.4752 7.4032 10.4816 7.4336L10.7344 8.5056L11.0112 7.4336C11.0208 7.4016 11.032 7.3808 11.0432 7.3712C11.056 7.3616 11.0768 7.3552 11.1056 7.3552H11.2544C11.28 7.3552 11.2944 7.368 11.2944 7.3952C11.2944 7.4032 11.2928 7.4112 11.2912 7.4208C11.2896 7.4304 11.2864 7.4432 11.28 7.4608L10.8944 8.6976C10.8848 8.7296 10.8736 8.7504 10.8608 8.76C10.848 8.7696 10.8272 8.776 10.8 8.776H10.6624C10.632 8.776 10.6112 8.7712 10.5984 8.76C10.5856 8.7488 10.5744 8.728 10.568 8.696L10.32 7.664L10.0736 8.6944C10.0656 8.7264 10.056 8.7472 10.0432 8.7584C10.0304 8.7696 10.008 8.7744 9.97916 8.7744H9.84156ZM11.8976 8.8176C11.8144 8.8176 11.7312 8.808 11.6512 8.7888C11.5712 8.7696 11.5088 8.7488 11.4672 8.7248C11.4416 8.7104 11.424 8.6944 11.4176 8.68C11.4112 8.6656 11.408 8.6496 11.408 8.6352V8.5536C11.408 8.52 11.4208 8.504 11.4448 8.504C11.4544 8.504 11.464 8.5056 11.4736 8.5088C11.4832 8.512 11.4976 8.5184 11.5136 8.5248C11.568 8.5488 11.6272 8.568 11.6896 8.5808C11.7536 8.5936 11.816 8.6 11.88 8.6C11.9808 8.6 12.0592 8.5824 12.1136 8.5472C12.168 8.512 12.1968 8.4608 12.1968 8.3952C12.1968 8.3504 12.1824 8.3136 12.1536 8.2832C12.1248 8.2528 12.0704 8.2256 11.992 8.2L11.76 8.128C11.6432 8.0912 11.5568 8.0368 11.504 7.9648C11.4512 7.8944 11.424 7.816 11.424 7.7328C11.424 7.6656 11.4384 7.6064 11.4672 7.5552C11.496 7.504 11.5344 7.4592 11.5824 7.424C11.6304 7.3872 11.6848 7.36 11.7488 7.3408C11.8128 7.3216 11.88 7.3136 11.9504 7.3136C11.9856 7.3136 12.0224 7.3152 12.0576 7.32C12.0944 7.3248 12.128 7.3312 12.1616 7.3376C12.1936 7.3456 12.224 7.3536 12.2528 7.3632C12.2816 7.3728 12.304 7.3824 12.32 7.392C12.3424 7.4048 12.3584 7.4176 12.368 7.432C12.3776 7.4448 12.3824 7.4624 12.3824 7.4848V7.56C12.3824 7.5936 12.3696 7.6112 12.3456 7.6112C12.3328 7.6112 12.312 7.6048 12.2848 7.592C12.1936 7.5504 12.0912 7.5296 11.9776 7.5296C11.8864 7.5296 11.8144 7.544 11.7648 7.5744C11.7152 7.6048 11.6896 7.6512 11.6896 7.7168C11.6896 7.7616 11.7056 7.8 11.7376 7.8304C11.7696 7.8608 11.8288 7.8912 11.9136 7.9184L12.1408 7.9904C12.256 8.0272 12.3392 8.0784 12.3888 8.144C12.4384 8.2096 12.4624 8.2848 12.4624 8.368C12.4624 8.4368 12.448 8.4992 12.4208 8.5536C12.392 8.608 12.3536 8.656 12.304 8.6944C12.2544 8.7344 12.1952 8.7632 12.1264 8.784C12.0544 8.8064 11.9792 8.8176 11.8976 8.8176Z" fill="white"/>
<path d="M12.1999 9.59518C11.6735 9.98398 10.9087 10.1904 10.2511 10.1904C9.3295 10.1904 8.4991 9.84958 7.8719 9.28318C7.8223 9.23838 7.8671 9.17758 7.9263 9.21278C8.6047 9.60638 9.4415 9.84478 10.3071 9.84478C10.8911 9.84478 11.5327 9.72318 12.1231 9.47358C12.2111 9.43358 12.2863 9.53118 12.1999 9.59518Z" fill="white"/>
<path d="M12.4192 9.34558C12.352 9.25918 11.9744 9.30398 11.8032 9.32478C11.752 9.33118 11.744 9.28638 11.7904 9.25278C12.0912 9.04158 12.5856 9.10238 12.6432 9.17278C12.7008 9.24478 12.6272 9.73918 12.3456 9.97598C12.3024 10.0128 12.2608 9.99358 12.28 9.94558C12.344 9.78718 12.4864 9.43038 12.4192 9.34558Z" fill="white"/>
</svg>
